<?xml version="1.0" encoding="utf-8"?>
<!-- Generator: Adobe Illustrator 16.0.3, SVG Export Plug-In . SVG Version: 6.00 Build 0)  -->
<!DOCTYPE svg PUBLIC "-//W3C//DTD SVG 1.1//EN" "http://www.w3.org/Graphics/SVG/1.1/DTD/svg11.dtd">
<svg version="1.1" id="Capa_1" xmlns="http://www.w3.org/2000/svg" xmlns:xlink="http://www.w3.org/1999/xlink" x="0px" y="0px"
	 width="841.89px" height="595.276px" viewBox="0 0 841.89 595.276" enable-background="new 0 0 841.89 595.276"
	 xml:space="preserve">
<g>
	<path fill="#E5E5E5" d="M317.311,335.582h-16.72l-9.44-15.12l-4.96,5.28v9.84h-14.32v-56.96h14.32v31.2l13.84-15.52h16.48
		l-15.44,16.32L317.311,335.582z"/>
	<path fill="#E5E5E5" d="M331.389,335.582h-14.72v-41.28h14.72V335.582z M330.989,290.142h-13.84v-11.52h13.84V290.142z"/>
	<path fill="#E5E5E5" d="M360.909,293.341c5.44,0,9.732,1.948,12.88,5.84c3.146,3.895,4.72,9.147,4.72,15.761
		s-1.574,11.867-4.72,15.76c-3.148,3.894-7.44,5.84-12.88,5.84c-5.28,0-9.228-2.026-11.84-6.08v5.12h-14.32v-56.96h14.72v20.16
		C352.135,295.155,355.949,293.341,360.909,293.341z M356.509,304.862c-4.8,0-7.2,3.359-7.2,10.08c0,6.72,2.4,10.08,7.2,10.08
		s7.2-3.467,7.2-10.4C363.709,308.116,361.309,304.862,356.509,304.862z"/>
	<path fill="#E5E5E5" d="M417.148,330.622c-4.054,3.947-9.468,5.92-16.24,5.92c-6.773,0-12.188-1.973-16.24-5.92
		c-4-3.946-6-9.173-6-15.68c0-6.613,2-11.866,6-15.761c3.946-3.892,9.36-5.84,16.24-5.84c6.88,0,12.292,1.948,16.24,5.84
		c4,3.948,6,9.2,6,15.761C423.148,321.449,421.148,326.675,417.148,330.622z M400.908,304.862c-4.96,0-7.44,3.359-7.44,10.08
		c0,6.72,2.48,10.08,7.44,10.08s7.44-3.36,7.44-10.08C408.348,308.221,405.868,304.862,400.908,304.862z"/>
	<path fill="#E5E5E5" d="M439.548,335.582h-14.72v-41.28h14.72V335.582z M439.147,290.142h-13.84v-11.52h13.84V290.142z"/>
	<path fill="#E5E5E5" d="M470.267,298.702v-20.08h14.721v56.96h-14.32v-4.96c-2.72,3.947-6.64,5.92-11.76,5.92
		c-5.44,0-9.734-1.946-12.88-5.84c-3.147-3.893-4.721-9.146-4.721-15.76s1.573-11.866,4.721-15.761
		c3.146-3.892,7.439-5.84,12.88-5.84C463.76,293.341,467.547,295.129,470.267,298.702z M456.107,315.261
		c0,6.508,2.399,9.761,7.199,9.761c4.801,0,7.2-3.36,7.2-10.08c0-6.721-2.399-10.08-7.2-10.08
		C458.507,304.862,456.107,308.329,456.107,315.261z"/>
	<path fill="#E5E5E5" d="M498.906,335.582h-14.16l20.4-56.96h14.16L498.906,335.582z"/>
</g>
<g>
	<path fill="#E5E5E5" d="M526.51,335.582h-14.16l20.4-56.96h14.16L526.51,335.582z"/>
</g>
</svg>
